<mxfile host="65bd71144e">
    <diagram id="-55225dTMH6KRCjdtvrq" name="Page-1">
        <mxGraphModel dx="594" dy="561" grid="1" gridSize="10" guides="1" tooltips="1" connect="1" arrows="1" fold="1" page="1" pageScale="1" pageWidth="827" pageHeight="1169" math="0" shadow="0">
            <root>
                <mxCell id="0"/>
                <mxCell id="1" parent="0"/>
                <mxCell id="2" value="Vertical Container" style="swimlane;fillColor=#d80073;fontColor=#ffffff;strokeColor=#A50040;" parent="1" vertex="1">
                    <mxGeometry x="70" y="190" width="460" height="240" as="geometry"/>
                </mxCell>
                <mxCell id="4" value="" style="rounded=0;whiteSpace=wrap;html=1;fillColor=#ffe6cc;strokeColor=#d79b00;" vertex="1" parent="1">
                    <mxGeometry x="70" y="210" width="460" height="240" as="geometry"/>
                </mxCell>
                <mxCell id="5" value="Actor" style="shape=umlActor;verticalLabelPosition=bottom;verticalAlign=top;html=1;outlineConnect=0;fillColor=#CC00CC;strokeColor=#33001A;fontColor=#33001A;" vertex="1" parent="1">
                    <mxGeometry x="80" y="220" width="30" height="60" as="geometry"/>
                </mxCell>
                <mxCell id="6" value="?" style="text;html=1;strokeColor=none;fillColor=none;align=center;verticalAlign=middle;whiteSpace=wrap;rounded=0;fontColor=#33001A;" vertex="1" parent="1">
                    <mxGeometry x="70" y="310" width="60" height="30" as="geometry"/>
                </mxCell>
                <mxCell id="7" value="" style="ellipse;whiteSpace=wrap;html=1;aspect=fixed;fontColor=none;strokeColor=#FF66B3;fillColor=none;noLabel=1;strokeWidth=3;" vertex="1" parent="1">
                    <mxGeometry x="80" y="350" width="10" height="10" as="geometry"/>
                </mxCell>
                <mxCell id="8" value="" style="ellipse;whiteSpace=wrap;html=1;aspect=fixed;fontColor=none;strokeColor=#FF66B3;fillColor=#FF66B3;noLabel=1;strokeWidth=3;" vertex="1" parent="1">
                    <mxGeometry x="120" y="350" width="10" height="10" as="geometry"/>
                </mxCell>
                <mxCell id="9" value="option 2" style="text;html=1;strokeColor=none;fillColor=none;align=center;verticalAlign=middle;whiteSpace=wrap;rounded=0;fontColor=none;" vertex="1" parent="1">
                    <mxGeometry x="110" y="360" width="40" height="30" as="geometry"/>
                </mxCell>
                <mxCell id="10" value="option 1" style="text;html=1;strokeColor=none;fillColor=none;align=center;verticalAlign=middle;whiteSpace=wrap;rounded=0;fontColor=none;" vertex="1" parent="1">
                    <mxGeometry x="70" y="360" width="45" height="30" as="geometry"/>
                </mxCell>
                <mxCell id="11" value="" style="rounded=1;whiteSpace=wrap;html=1;fontColor=none;strokeColor=#FF66B3;strokeWidth=3;fillColor=#FFE600;" vertex="1" parent="1">
                    <mxGeometry x="80" y="400" width="60" height="30" as="geometry"/>
                </mxCell>
                <mxCell id="12" value="button" style="text;html=1;strokeColor=none;fillColor=none;align=center;verticalAlign=middle;whiteSpace=wrap;rounded=0;fontColor=none;" vertex="1" parent="1">
                    <mxGeometry x="80" y="400" width="60" height="30" as="geometry"/>
                </mxCell>
            </root>
        </mxGraphModel>
    </diagram>
</mxfile>